# ASF file generated by Tido's ASF writer for MATLAB.
:version 1.10
:name VICON
:units
  mass 1
  length 0.45000000000000001
  angle deg
:documentation
   .ast/.asf automatically generated from VICON data using
   VICON BodyBuilder and BodyLanguage model FoxedUp or BRILLIANT.MOD
:root
  axis xyz
  order tx ty tz rx ry rz 
  position 0 0 0
  orientation 0 0 0
:bonedata
  begin
    id 1
    name lhipjoint
    direction 0.44017800000000001 -0.82263900000000001 0.359871
    length 1.1390085000000001
    axis 0 0 0 xyz
  end
  begin
    id 2
    name lfemur
    direction 0.34201999999999999 -0.939693 0
    length 3.5465939999999998
    axis 0 0 20 xyz
    dof rx ry rz 
    limits (-160 20)
           (-70 70)
           (-60 70)
  end
  begin
    id 3
    name ltibia
    direction 0.34201999999999999 -0.939693 0
    length 3.7970234999999999
    axis 0 0 20 xyz
    dof rx 
    limits (-10 170)
  end
  begin
    id 4
    name lfoot
    direction 0.088635099999999994 -0.24352299999999999 0.96583699999999995
    length 1.1853629999999999
    axis -90 7.62852e-016 20 xyz
    dof rx rz 
    limits (-45 90)
           (-70 20)
  end
  begin
    id 5
    name ltoes
    direction 1.53703e-011 -4.2171700000000001e-011 1
    length 0.59142150000000004
    axis -90 7.62852e-016 20 xyz
    dof rx 
    limits (-90 20)
  end
  begin
    id 6
    name rhipjoint
    direction -0.399779 -0.83977299999999999 0.367367
    length 1.115766
    axis 0 0 0 xyz
  end
  begin
    id 7
    name rfemur
    direction -0.34201999999999999 -0.939693 0
    length 3.4866269999999999
    axis 0 0 -20 xyz
    dof rx ry rz 
    limits (-160 20)
           (-70 70)
           (-70 60)
  end
  begin
    id 8
    name rtibia
    direction -0.34201999999999999 -0.939693 0
    length 3.9349440000000002
    axis 0 0 -20 xyz
    dof rx 
    limits (-10 170)
  end
  begin
    id 9
    name rfoot
    direction -0.108514 -0.29813899999999999 0.94833400000000001
    length 1.1974590000000001
    axis -90 -7.62852e-016 -20 xyz
    dof rx rz 
    limits (-45 90)
           (-20 70)
  end
  begin
    id 10
    name rtoes
    direction -1.5339199999999999e-011 -4.2207699999999999e-011 1
    length 0.59392350000000005
    axis -90 -7.62852e-016 -20 xyz
    dof rx 
    limits (-90 20)
  end
  begin
    id 11
    name lowerback
    direction 0.011325699999999999 0.99986600000000003 0.0118602
    length 1.164123
    axis 0 0 0 xyz
    dof rx ry rz 
    limits (-20 45)
           (-30 30)
           (-30 30)
  end
  begin
    id 12
    name upperback
    direction -0.016474699999999998 0.99519299999999999 -0.096537499999999998
    length 1.135656
    axis 0 0 0 xyz
    dof rx ry rz 
    limits (-20 45)
           (-30 30)
           (-30 30)
  end
  begin
    id 13
    name thorax
    direction -0.019430099999999999 0.99433000000000005 -0.10455200000000001
    length 1.1524455
    axis 0 0 0 xyz
    dof rx ry rz 
    limits (-20 45)
           (-30 30)
           (-30 30)
  end
  begin
    id 14
    name lowerneck
    direction 0.014854300000000001 0.995587 -0.092657000000000003
    length 0.772119
    axis 0 0 0 xyz
    dof rx ry rz 
    limits (-20 45)
           (-30 30)
           (-30 30)
  end
  begin
    id 15
    name upperneck
    direction -0.0135467 0.99365599999999998 -0.111639
    length 0.76021650000000007
    axis 0 0 0 xyz
    dof rx ry rz 
    limits (-20 45)
           (-30 30)
           (-30 30)
  end
  begin
    id 16
    name head
    direction -0.0061534900000000002 0.99954699999999996 -0.029447999999999998
    length 0.78578999999999999
    axis 0 0 0 xyz
    dof rx ry rz 
    limits (-20 45)
           (-30 30)
           (-30 30)
  end
  begin
    id 17
    name lclavicle
    direction 0.98826700000000001 0.14988499999999999 0.029371299999999999
    length 2.012499
    axis 0 0 0 xyz
    dof ry rz 
    limits (-20 10)
           (0 20)
  end
  begin
    id 18
    name lhumerus
    direction 1 -4.4898600000000001e-011 -1.1483300000000001e-027
    length 2.4171659999999999
    axis 180 -30 -90 xyz
    dof rx ry rz 
    limits (-60 90)
           (-90 90)
           (-90 90)
  end
  begin
    id 19
    name lradius
    direction 0.99999800000000005 0.00170963 -0.00098705499999999992
    length 1.773954
    axis 180 -30 -90 xyz
    dof rx 
    limits (-10 170)
  end
  begin
    id 20
    name lwrist
    direction 0.99999800000000005 7.53149e-005 -0.00194706
    length 0.88697700000000002
    axis 4.6505600000000004e-015 90 90 xyz
    dof ry 
    limits (-180 0)
  end
  begin
    id 21
    name lhand
    direction 1 -4.48973e-011 -1.3174599999999999e-026
    length 0.5306265
    axis 8.4064999999999996e-015 90 90 xyz
    dof rx rz 
    limits (-90 90)
           (-45 45)
  end
  begin
    id 22
    name lfingers
    direction 1 -4.49107e-011 -2.6349199999999999e-026
    length 0.42780555000000003
    axis 1.6812999999999999e-014 90 90 xyz
    dof rx 
    limits (0 90)
  end
  begin
    id 23
    name lthumb
    direction 0.70710700000000004 -6.3504800000000005e-011 0.70710700000000004
    length 0.6142455
    axis -90 45 2.8529899999999998e-015 xyz
    dof rx rz 
    limits (-45 45)
           (-45 45)
  end
  begin
    id 24
    name rclavicle
    direction -0.996699 0.064289499999999999 -0.049572499999999999
    length 2.0817494999999999
    axis 0 0 0 xyz
    dof ry rz 
    limits (-10 20)
           (-20 0)
  end
  begin
    id 25
    name rhumerus
    direction -1 -4.4891899999999998e-011 -2.4105900000000001e-027
    length 2.474145
    axis 180 30 90 xyz
    dof rx ry rz 
    limits (-90 60)
           (-90 90)
           (-90 90)
  end
  begin
    id 26
    name rradius
    direction -0.99999899999999997 0.0011810099999999999 -0.00068185800000000003
    length 1.5677145000000001
    axis 180 30 90 xyz
    dof rx 
    limits (-10 170)
  end
  begin
    id 27
    name rwrist
    direction -0.99999899999999997 0.000321823 -0.00132288
    length 0.78385499999999997
    axis 4.6505600000000004e-015 -90 -90 xyz
    dof ry 
    limits (-180 0)
  end
  begin
    id 28
    name rhand
    direction -1 -4.4902199999999998e-011 -1.3174599999999999e-026
    length 0.60719400000000001
    axis 8.4064999999999996e-015 -90 -90 xyz
    dof rx rz 
    limits (-90 90)
           (-45 45)
  end
  begin
    id 29
    name rfingers
    direction -1 -4.4917800000000002e-011 -2.6349199999999999e-026
    length 0.48953249999999998
    axis 1.6812999999999999e-014 -90 -90 xyz
    dof rx 
    limits (0 90)
  end
  begin
    id 30
    name rthumb
    direction -0.70710700000000004 -6.3471300000000002e-011 0.70710700000000004
    length 0.70287750000000004
    axis -90 -45 -2.8529899999999998e-015 xyz
    dof rx rz 
    limits (-45 45)
           (-45 45)
  end
:hierarchy
begin
  root lhipjoint rhipjoint lowerback 
  lhipjoint lfemur 
  lfemur ltibia 
  ltibia lfoot 
  lfoot ltoes 
  rhipjoint rfemur 
  rfemur rtibia 
  rtibia rfoot 
  rfoot rtoes 
  lowerback upperback 
  upperback thorax 
  thorax lowerneck lclavicle rclavicle 
  lowerneck upperneck 
  upperneck head 
  lclavicle lhumerus 
  lhumerus lradius 
  lradius lwrist 
  lwrist lhand lthumb 
  lhand lfingers 
  rclavicle rhumerus 
  rhumerus rradius 
  rradius rwrist 
  rwrist rhand rthumb 
  rhand rfingers 
end

# AMC file generated by Tido's AMC writer for MATLAB on 27-Nov-2005 at 18:24:20
# Corresponding ASF file: S:\data_MoCap\MoCaDaDB\HDM\Bonn_ASF_AMC_Use IK_on\björn\bjorn.asf
# Number of frames: 542
# Sampling rate: 120
:fully-specified
:degrees
390
root 11.546505 8.403435 -7.3741950000000003 2.73977 29.973700000000001 367.89299999999997 
lfemur 16.117999999999999 12.483499999999999 -19.643000000000001 
ltibia 15.5366 
lfoot -15.382899999999999 -14.817299999999999 
ltoes -16.511299999999999 
rfemur -38.9343 -18.0244 18.715 
rtibia 32.325099999999999 
rfoot -13.506399999999999 17.935099999999998 
rtoes -2.79548 
lowerback -4.5553499999999998 -1.3588499999999999 -5.7678099999999999 
upperback 10.698600000000001 -0.73202 -2.61727 
thorax 14.4 -0.73444399999999999 0.20505999999999999 
lowerneck 1.89527 -3.1979899999999999 0.34454299999999999 
upperneck 16.368200000000002 -5.0752899999999999 6.5032399999999999 
head 4.7542499999999999 -2.0670600000000001 1.7784199999999999 
lclavicle 8.33902e-014 -1.5306400000000001e-014 
lhumerus -1.81986 -2.0423100000000001 68.976699999999994 
lradius 54.516599999999997 
lwrist -8.2871299999999994 
lhand -30.972200000000001 -11.6805 
lfingers 7.1250200000000001 
lthumb -4.2563000000000004 18.256799999999998 
rclavicle 8.33902e-014 -1.5306400000000001e-014 
rhumerus -51.9559 -39.442100000000003 -56.6751 
rradius 15.0458 
rwrist 26.428799999999999 
rhand -9.7747200000000003 9.2912999999999997 
rfingers 7.1250200000000001 
rthumb 16.200600000000001 -20.0517 
391
root 11.582685 8.3902049999999999 -7.3106999999999998 2.8230300000000002 29.964099999999998 367.96699999999998 
lfemur 16.7926 12.190300000000001 -19.689900000000002 
ltibia 15.191599999999999 
lfoot -15.363 -14.5998 
ltoes -17.604600000000001 
rfemur -39.190199999999997 -18.6264 18.936599999999999 
rtibia 32.256500000000003 
rfoot -12.9603 17.610299999999999 
rtoes -2.3853900000000001 
lowerback -4.7508400000000002 -1.4350499999999999 -5.7187799999999998 
upperback 10.6973 -0.83158500000000002 -2.5824400000000001 
thorax 14.527799999999999 -0.78090899999999996 0.19356599999999999 
lowerneck 1.93794 -3.1657199999999999 0.37490600000000002 
upperneck 16.332599999999999 -5.0139199999999997 6.3852200000000003 
head 4.7306999999999997 -2.0438399999999999 1.7399500000000001 
lclavicle -7.1860699999999996e-014 4.6913199999999997e-014 
lhumerus -1.9158599999999999 -2.3304 69.239800000000002 
lradius 54.605200000000004 
lwrist -8.6973900000000004 
lhand -31.151199999999999 -11.745100000000001 
lfingers 7.1250200000000001 
lthumb -4.4291200000000002 18.188600000000001 
rclavicle -7.1860699999999996e-014 4.6913199999999997e-014 
rhumerus -51.510300000000001 -39.0916 -57.380000000000003 
rradius 15.1275 
rwrist 25.714600000000001 
rhand -9.7314799999999995 9.0751000000000008 
rfingers 7.1250200000000001 
rthumb 16.2422 -20.264500000000002 
392
root 11.618775000000001 8.3776500000000009 -7.2469349999999997 2.8820600000000001 29.979299999999999 367.99299999999999 
lfemur 17.461300000000001 11.783200000000001 -19.729199999999999 
ltibia 14.836 
lfoot -15.281499999999999 -14.340199999999999 
ltoes -18.347300000000001 
rfemur -39.390500000000003 -19.0778 19.125800000000002 
rtibia 32.263399999999997 
rfoot -12.3979 16.9754 
rtoes -1.7777499999999999 
lowerback -4.92286 -1.5040100000000001 -5.6044 
upperback 10.674099999999999 -0.93299100000000001 -2.5489999999999999 
thorax 14.610900000000001 -0.82010400000000006 0.14519699999999999 
lowerneck 2.0435300000000001 -3.1506099999999999 0.495807 
upperneck 16.284199999999998 -4.9669100000000004 6.2101300000000004 
head 4.6901900000000003 -2.0266899999999999 1.66951 
lclavicle 4.8453800000000002e-014 -5.4466999999999998e-014 
lhumerus -2.1253700000000002 -2.7393700000000001 69.419399999999996 
lradius 54.750599999999999 
lwrist -8.9371399999999994 
lhand -31.2407 -11.699999999999999 
lfingers 7.1250200000000001 
lthumb -4.5155599999999998 18.2318 
rclavicle 4.8453800000000002e-014 -5.4466999999999998e-014 
rhumerus -51.213200000000001 -38.961300000000001 -57.8157 
rradius 15.0928 
rwrist 25.333400000000001 
rhand -9.7290899999999993 8.9497999999999998 
rfingers 7.1250200000000001 
rthumb 16.244499999999999 -20.389700000000001 
393
root 11.654954999999999 8.3662200000000002 -7.1822249999999999 2.8937400000000002 29.976099999999999 367.99299999999999 
lfemur 18.159400000000002 11.3832 -19.752600000000001 
ltibia 14.491300000000001 
lfoot -15.184200000000001 -14.0258 
ltoes -19.218900000000001 
rfemur -39.412399999999998 -19.0932 19.141500000000001 
rtibia 32.343400000000003 
rfoot -12.166499999999999 15.908200000000001 
rtoes -2.7318799999999999 
lowerback -5.06555 -1.5706599999999999 -5.4627699999999999 
upperback 10.6562 -1.0404599999999999 -2.4903599999999999 
thorax 14.680899999999999 -0.86093699999999995 0.10892499999999999 
lowerneck 2.1240899999999998 -3.1182400000000001 0.46199499999999999 
upperneck 16.2758 -4.9083600000000001 6.1249799999999999 
head 4.6709800000000001 -2.0063499999999999 1.65235 
lclavicle -3.6129099999999998e-014 -9.2434899999999998e-015 
lhumerus -2.3434599999999999 -3.0257100000000001 69.749700000000004 
lradius 54.763199999999998 
lwrist -9.3952399999999994 
lhand -31.350200000000001 -11.5999 
lfingers 7.1250200000000001 
lthumb -4.62134 18.329699999999999 
rclavicle -3.6129099999999998e-014 -9.2434899999999998e-015 
rhumerus -51.355200000000004 -39.741999999999997 -57.304200000000002 
rradius 14.874599999999999 
rwrist 26.138500000000001 
rhand -9.7764900000000008 8.8989100000000008 
rfingers 7.1250200000000001 
rthumb 16.198899999999998 -20.444299999999998 
394
root 11.69073 8.3560499999999998 -7.1166600000000004 2.8650199999999999 29.9559 367.92099999999999 
lfemur 18.8782 10.9215 -19.7347 
ltibia 14.1142 
lfoot -15.0657 -13.6884 
ltoes -19.804400000000001 
rfemur -39.347999999999999 -18.816299999999998 19.102599999999999 
rtibia 32.508000000000003 
rfoot -12.0601 14.4605 
rtoes -3.6215000000000002 
lowerback -5.2020999999999997 -1.61364 -5.2527200000000001 
upperback 10.6564 -1.1258600000000001 -2.41791 
thorax 14.764799999999999 -0.88494600000000001 0.053231100000000003 
lowerneck 2.1558799999999998 -3.1109300000000002 0.52044400000000002 
upperneck 16.2409 -4.8776200000000003 5.9769899999999998 
head 4.6494999999999997 -1.9974799999999999 1.59866 
lclavicle 9.6907499999999999e-015 -5.2876699999999999e-014 
lhumerus -2.6356000000000002 -3.3969499999999999 70.082899999999995 
lradius 54.768999999999998 
lwrist -9.7243700000000004 
lhand -31.4114 -11.529999999999999 
lfingers 7.1250200000000001 
lthumb -4.6803499999999998 18.398299999999999 
rclavicle 9.6907499999999999e-015 -5.2876699999999999e-014 
rhumerus -51.416899999999998 -40.442300000000003 -56.905900000000003 
rradius 14.6366 
rwrist 26.793199999999999 
rhand -9.9230499999999999 9.0073100000000004 
rfingers 7.1250200000000001 
rthumb 16.0578 -20.347300000000001 
